<?xml version="1.0" encoding="UTF-8"?>
<svg xmlns="http://www.w3.org/2000/svg" viewBox="0 0 255.163 255.163">
  <g fill="#C7F542">
  <path d="M182.26,0V36.452A36.449,36.449,0,0,0,145.808,72.9H109.356A72.9,72.9,0,0,1,182.26,0Z"/>
  <path d="M255.163,72.9H218.711A36.45,36.45,0,0,0,182.26,36.452V0A72.9,72.9,0,0,1,255.163,72.9Z"/>
  <path d="M182.26,145.808V109.356A36.45,36.45,0,0,0,218.711,72.9h36.452A72.9,72.9,0,0,1,182.26,145.808Z"/>
  <path d="M72.9,0V36.452A36.45,36.45,0,0,1,109.356,72.9h36.452A72.9,72.9,0,0,0,72.9,0Z"/>
  <path d="M0,72.9H36.452A36.45,36.45,0,0,1,72.9,36.452V0A72.9,72.9,0,0,0,0,72.9Z"/>
  <path d="M72.9,145.808V109.356A36.451,36.451,0,0,1,36.452,72.9H0A72.9,72.9,0,0,0,72.9,145.808Z"/>
  <path d="M182.26,255.163V218.711a36.449,36.449,0,0,1-36.452-36.451H109.356A72.9,72.9,0,0,0,182.26,255.163Z"/>
  <path d="M255.163,182.26H218.711a36.449,36.449,0,0,1-36.451,36.451v36.452A72.9,72.9,0,0,0,255.163,182.26Z"/>
  <path d="M182.26,109.356v36.452a36.449,36.449,0,0,1,36.451,36.452h36.452A72.9,72.9,0,0,0,182.26,109.356Z"/>
  <path d="M72.9,255.163V218.711a36.45,36.45,0,0,0,36.452-36.451h36.452A72.9,72.9,0,0,1,72.9,255.163Z"/>
  <path d="M0,182.26H36.452A36.449,36.449,0,0,0,72.9,218.711v36.452A72.9,72.9,0,0,1,0,182.26Z"/>
  <path d="M72.9,109.356v36.452A36.45,36.45,0,0,0,36.452,182.26H0A72.9,72.9,0,0,1,72.9,109.356Z"/>
  </g>
</svg>
